<?xml version="1.0" encoding="utf-8"?>
<!-- Generator: Adobe Illustrator 22.0.1, SVG Export Plug-In . SVG Version: 6.00 Build 0)  -->
<svg version="1.1" id="Layer_1" xmlns="http://www.w3.org/2000/svg" xmlns:xlink="http://www.w3.org/1999/xlink" x="0px" y="0px"
	 viewBox="0 0 512 512" style="enable-background:new 0 0 512 512;" xml:space="preserve">
<g id="Table-2">
	<path d="M208,120h96c13.3,0,24-10.7,24-24V80c0-13.3-10.7-24-24-24h-96c-13.3,0-24,10.7-24,24v16C184,109.3,194.7,120,208,120z
		 M200,80c0-4.4,3.6-8,8-8h96c4.4,0,8,3.6,8,8v16c0,4.4-3.6,8-8,8h-96c-4.4,0-8-3.6-8-8V80z"/>
	<path d="M40,120h96c13.3,0,24-10.7,24-24V80c0-13.3-10.7-24-24-24H40c-13.3,0-24,10.7-24,24v16C16,109.3,26.7,120,40,120z M32,80
		c0-4.4,3.6-8,8-8h96c4.4,0,8,3.6,8,8v16c0,4.4-3.6,8-8,8H40c-4.4,0-8-3.6-8-8V80z"/>
	<path d="M376,120h96c13.3,0,24-10.7,24-24V80c0-13.3-10.7-24-24-24h-96c-13.3,0-24,10.7-24,24v16C352,109.3,362.7,120,376,120z
		 M368,80c0-4.4,3.6-8,8-8h96c4.4,0,8,3.6,8,8v16c0,4.4-3.6,8-8,8h-96c-4.4,0-8-3.6-8-8V80z"/>
	<path d="M304,392h-96c-13.3,0-24,10.7-24,24v16c0,13.3,10.7,24,24,24h96c13.3,0,24-10.7,24-24v-16C328,402.7,317.3,392,304,392z
		 M312,432c0,4.4-3.6,8-8,8h-96c-4.4,0-8-3.6-8-8v-16c0-4.4,3.6-8,8-8h96c4.4,0,8,3.6,8,8V432z"/>
	<path d="M136,392H40c-13.3,0-24,10.7-24,24v16c0,13.3,10.7,24,24,24h96c13.3,0,24-10.7,24-24v-16C160,402.7,149.3,392,136,392z
		 M144,432c0,4.4-3.6,8-8,8H40c-4.4,0-8-3.6-8-8v-16c0-4.4,3.6-8,8-8h96c4.4,0,8,3.6,8,8V432z"/>
	<path d="M472,392h-96c-13.3,0-24,10.7-24,24v16c0,13.3,10.7,24,24,24h96c13.3,0,24-10.7,24-24v-16C496,402.7,485.3,392,472,392z
		 M480,432c0,4.4-3.6,8-8,8h-96c-4.4,0-8-3.6-8-8v-16c0-4.4,3.6-8,8-8h96c4.4,0,8,3.6,8,8V432z"/>
	<path d="M496,136H16c-4.4,0-8,3.6-8,8v224c0,4.4,3.6,8,8,8h480c4.4,0,8-3.6,8-8V144C504,139.6,500.4,136,496,136z M488,360H24V152
		h464V360z"/>
</g>
</svg>
