<?xml version="1.0" encoding="utf-8"?>
<!-- Generator: Adobe Illustrator 22.0.1, SVG Export Plug-In . SVG Version: 6.00 Build 0)  -->
<svg version="1.1" id="Layer_1" xmlns="http://www.w3.org/2000/svg" xmlns:xlink="http://www.w3.org/1999/xlink" x="0px" y="0px"
	 viewBox="0 0 480 480" style="enable-background:new 0 0 480 480;" xml:space="preserve">
<path d="M256,104h16v16h-16V104z"/>
<path d="M304,104h16v16h-16V104z"/>
<path d="M288,144c-4.4,0-8-3.6-8-8h-16c0,13.3,10.7,24,24,24s24-10.7,24-24h-16C296,140.4,292.4,144,288,144z"/>
<path d="M448,224.8V208h-16v16.8c-18.6,3.8-32,20.2-32,39.2v8h-16v-40c0-14.6-5.7-28.6-15.9-39l0.3-0.9c10.3-31,15.6-63.4,15.6-96.1
	c0-53-43-96-96-96s-96,43-96,96c0,32.7,5.3,65.1,15.6,96.1l0.3,0.9c-10.2,10.4-15.9,24.4-15.9,39v40H99.5l6-16H152
	c13.3,0,24-10.7,24-24v-80c0-13.3-10.7-24-24-24H24c-13.3,0-24,10.7-24,24v80c0,13.3,10.7,24,24,24h16.5l-6,16H8c-4.4,0-8,3.6-8,8
	v192c0,4.4,3.6,8,8,8h464c4.4,0,8-3.6,8-8V264C480,245,466.6,228.6,448,224.8z M288,16c44.2,0,80,35.8,80,80
	c0,29.4-4.5,58.7-13.4,86.7c-7.5-4.1-15.9-6.3-24.5-6.6C344,164,352,146.5,352,128V72c0-2.4-1.1-4.7-3-6.2c-1.9-1.5-4.3-2.1-6.7-1.6
	l-112,24c-3.7,0.8-6.3,4.1-6.3,7.8v32c0,18.5,8,36,21.9,48.1c-8.6,0.3-16.9,2.6-24.5,6.6c-8.9-28-13.4-57.3-13.4-86.7
	C208,51.8,243.8,16,288,16z M328,240v32h-32v-45.2l27.8-34.8h4.2c22.1,0,40,17.9,40,40v40h-24v-32H328z M303.4,192L288,211.2
	L272.6,192H303.4z M240,128v-25.5l96-20.6V128c0,26.5-21.5,48-48,48S240,154.5,240,128z M208,232c0-22.1,17.9-40,40-40h4.2
	l27.8,34.8V272h-32v-32h-16v32h-24V232z M82.5,272H51.5l18-48h30.9L82.5,272z M24,240c-4.4,0-8-3.6-8-8v-80c0-4.4,3.6-8,8-8h128
	c4.4,0,8,3.6,8,8v80c0,4.4-3.6,8-8,8h-40.5l8-21.2c0.9-2.5,0.6-5.2-0.9-7.4s-4-3.4-6.6-3.4H64c-3.3,0-6.3,2.1-7.5,5.2l-10,26.8H24z
	 M464,464H16V320h448V464z M464,304H16v-16h448V304z M464,272h-48v-8c0-13.3,10.7-24,24-24s24,10.7,24,24V272z"/>
</svg>
