<?xml version="1.0" encoding="utf-8"?>
<!-- Generator: Adobe Illustrator 22.0.1, SVG Export Plug-In . SVG Version: 6.00 Build 0)  -->
<svg version="1.1" id="Layer_1" xmlns="http://www.w3.org/2000/svg" xmlns:xlink="http://www.w3.org/1999/xlink" x="0px" y="0px"
	 viewBox="0 0 512 512" style="enable-background:new 0 0 512 512;" xml:space="preserve">
<path d="M429.4,120.1c4.8-12.8,1-27.9-10.5-36.5c0,0,0,0,0,0c-12.5-9.4-29.7-8.2-40.7,2.1c-8.8-3.8-18.1-6.9-27.6-9.3
	c-42.6-10.7-87.4-6-126,13.4c-39,19.5-67.1,51.4-79.3,90c-11.4,36.2-7.4,74.3,11.2,107.8l-10.6,55.7c-0.6,3.2,0.3,6.4,2.5,8.8
	s5.3,3.6,8.5,3.3l62.6-6.3c12.8,6.9,26.7,12.3,41.3,16c14.7,3.7,29.8,5.5,44.9,5.5c22.8,0,45.6-4.2,66.7-12.5
	c5.2-2.1,7.8-8,5.8-13.2s-8-7.8-13.2-5.8c-31.1,12.2-66.4,14.4-99.2,6.2c-13.9-3.5-27.1-8.8-39.1-15.6c-2.1-1.2-4.5-1.6-6.7-1.2
	l-51.4,5.2l8.7-46c0.5-2.4,0-4.9-1.2-7.1c-17.3-29.2-21.3-62.9-11.2-94.7c21.8-69.1,103-109.4,181-89.8c7.8,2,15.5,4.5,22.8,7.6
	c-1.9,11.3,2.4,23.2,12.1,30.6c5.7,4.3,12.4,6.4,19.1,6.4c5.8,0,11.6-1.6,16.7-4.7c31.9,32.7,43.5,77.7,30.3,119.5
	c-4.8,15.2-12.5,29.3-23.1,41.9c-3.6,4.3-3,10.7,1.3,14.3c1.9,1.6,4.2,2.4,6.5,2.4c2.9,0,5.8-1.2,7.8-3.7
	c12.2-14.7,21.2-31.1,26.8-48.8C481.8,211.8,467.7,158.3,429.4,120.1z M392.8,118c-5-3.8-6-10.9-2.2-15.9c2.2-2.9,5.6-4.5,9.1-4.5
	c2.4,0,4.8,0.8,6.9,2.3c5,3.8,6,10.9,2.2,15.9C405,120.8,397.8,121.7,392.8,118z"/>
<path d="M388.7,58.5c14.8-3.2,30.1,0.2,42.1,9.3c13.2,9.9,20.6,25.1,20.5,41.6c-0.1,5.6,4.5,10.2,10.1,10.3h0.1
	c5.6,0,10.1-4.5,10.2-10.1c0.2-22.7-10.5-44.4-28.5-58c-16.7-12.7-38.1-17.4-58.7-12.9c-5.5,1.2-9,6.6-7.8,12.1
	C377.8,56.2,383.2,59.7,388.7,58.5z"/>
<path d="M466.5,20.7C442.7,2.7,412.3-4,383.1,2.3c-5.5,1.2-9,6.6-7.8,12.1c1.2,5.5,6.6,9,12.1,7.8c23.4-5.1,47.7,0.3,66.8,14.7
	c20.8,15.8,32.7,39.8,32.5,66c0,5.6,4.5,10.2,10.1,10.3c0,0,0.1,0,0.1,0c5.6,0,10.1-4.5,10.2-10.1C507.3,70.9,492.1,40.1,466.5,20.7
	z"/>
<path d="M254.4,411.2c-27-19.1-43.8-25.1-66.3-8.1c-0.5,0.4-0.9,0.7-1.3,1.2c-4.6,0.6-21.9-5-39.9-22.9c-4.1-4.1-8.4-8.8-12.5-13.8
	c-4.2-5.2-7.9-10.3-11.1-15.1c-13.9-21.2-15.9-39.2-14.4-43.7c0.5-0.3,1-0.6,1.4-1c21.3-18.6,18.7-36.3,5.5-66.6
	c-7.8-19.2-16.7-38.5-31.3-44.5c-11.2-4.6-27.8,1.9-33.2,4.8c-12.6,6.7-25.2,19.4-32.9,33.1c-14,25.2-14.3,57-9.9,78.5
	C22,378.3,101,475.3,162.2,501.6c13.3,5.7,31.5,10.4,50.2,10.4c9.6,0,19.4-1.2,28.7-4.1c15.3-4.8,30-14.3,39.1-25.5
	c3.9-4.7,13.6-19.7,11.4-31.6C288.8,435.3,271.7,422.7,254.4,411.2z M264.6,469.4c-6.6,8-18.2,15.4-29.5,19
	c-22.2,7-48.8,1.4-64.8-5.5c-25.8-11.1-58.3-38.7-87-73.8C54.6,374,34.1,336.5,28.5,309v0c-3.5-17.1-3.6-44.2,7.7-64.5
	c5.8-10.4,15.4-20.2,24.6-25.1c4.6-2.4,11.4-4.1,14.7-4.1c0.5,0,1,0,1.3,0.1c7.9,3.3,16.5,24.4,20.2,33.5c0,0.1,0.1,0.2,0.1,0.3
	c12.7,29,9.8,34.3,0.7,42.4c-3.1,1.8-6.5,5.2-8.4,11.4c-4.3,14.4,2.5,38.8,16.9,60.6c3.5,5.4,7.7,11,12.3,16.8
	c4.6,5.6,9.3,10.8,13.9,15.4c18.5,18.5,41,30,55.9,28.8c6.5-0.5,10.5-3.3,12.8-5.9c9.8-7.3,15.6-9,41.5,9.3c0.1,0.1,0.1,0.1,0.2,0.2
	c8.1,5.4,27.1,18.1,28.7,26.4C271.9,456.9,268.4,464.8,264.6,469.4z"/>
<path d="M226.3,190.3l-11,29.9l-11-29.9l0-0.1c-1.8-4.4-5.2-7-10-7c-3,0-5.6,1.1-7.7,3.1c-2.1,2-3.3,4.6-3.3,7.5
	c0,0.9,0.1,1.7,0.3,2.6c0.2,0.7,0.3,1.3,0.6,2l0,0.1l20.8,52.1l0,0c0.9,2.1,2.2,4.6,4,6.1c1.9,1.5,4.4,1.9,6.7,1.9
	c5.2,0,8.4-3.6,10.2-8.1l20.7-52c0.6-1.5,0.9-3.1,0.9-4.8c0-2.9-1.1-5.5-3.2-7.6c-2.2-2-4.8-3.1-7.8-3.1
	C231.6,183.2,228,185.8,226.3,190.3z"/>
<path d="M420.4,190.2c-5.3-5.1-12.1-7.3-19.4-7.3h-17.7c-3,0-5.7,1.1-7.9,3.3c-2.2,2.2-3.2,4.9-3.2,7.9v52.4c0,3,1.1,5.7,3.2,7.8
	c2.1,2.1,4.7,3.2,7.6,3.2s5.5-1.1,7.6-3.2c2.1-2.1,3.2-4.7,3.2-7.6v-12h8.1c7.1,0,13.8-2,18.9-7.1c5.1-5,7.2-11.5,7.2-18.6
	C428.1,201.8,425.7,195.3,420.4,190.2z M404.2,213.3c-1.2,1.1-2.4,1.8-4,1.8h-6.4V203h6.5c1.6,0,2.9,0.5,4,1.7
	c1.2,1.3,1.7,2.7,1.7,4.4C406,210.8,405.4,212.1,404.2,213.3z"/>
<path d="M288.7,182.7c-10.2,0-19,3.3-26.1,10.7c-7.1,7.5-10.1,16.9-10.1,27.2c0,10.4,3,19.9,10.2,27.5c7,7.4,15.8,10.9,25.9,10.9
	c10.2,0,19-3.5,26-11c7.1-7.6,10.1-16.9,10.1-27.1c0-10.3-3-19.7-10.1-27.3C307.7,186.2,298.9,182.7,288.7,182.7z M298.5,234.3
	c-2.6,3.2-5.8,4.7-9.8,4.7c-4.1,0-7.3-1.4-9.9-4.6c-3.1-3.8-3.9-8.8-3.9-13.6c0-4.8,0.9-9.5,4-13.3c2.6-3.1,5.7-4.6,9.8-4.6
	c4.1,0,7.3,1.4,9.9,4.6c3,3.8,3.9,8.7,3.9,13.5C302.5,225.7,301.5,230.5,298.5,234.3z"/>
<path d="M340.4,185.6c-2,2.1-3.2,4.7-3.2,7.6v53.5c0,2.9,1.1,5.6,3.1,7.6c2.1,2.1,4.7,3.2,7.7,3.2c3,0,5.6-1.1,7.7-3.2
	c2.1-2,3.1-4.6,3.1-7.6v-53.6c0-3-1-5.6-3.1-7.7s-4.6-3.3-7.6-3.3C345.1,182.2,342.4,183.4,340.4,185.6z"/>
<path d="M395.9,322.5l-0.2,0.1c-4.7,3.1-5.9,9.4-2.8,14.1c2,2.9,5.2,4.5,8.5,4.5c1.9,0,3.9-0.6,5.6-1.7l0.2-0.1
	c4.7-3.1,5.9-9.4,2.8-14.1C406.9,320.7,400.6,319.4,395.9,322.5z"/>
</svg>
