<?xml version="1.0" encoding="utf-8"?>
<!-- Generator: Adobe Illustrator 22.0.1, SVG Export Plug-In . SVG Version: 6.00 Build 0)  -->
<svg version="1.1" id="Layer_1" xmlns="http://www.w3.org/2000/svg" xmlns:xlink="http://www.w3.org/1999/xlink" x="0px" y="0px"
	 viewBox="0 0 512 512" style="enable-background:new 0 0 512 512;" xml:space="preserve">
<path d="M512,409.6v-85.3c0-14.1-11.5-25.6-25.6-25.6h-25.6v-85.3c0-23.6-19.1-42.6-42.7-42.7H281.6c-23.6,0-42.6,19.1-42.7,42.7
	v85.3h-25.6c-14.1,0-25.6,11.5-25.6,25.6v85.3c0.1,22.5,17.6,41,40,42.4l-12.3,42.9h-79.8c-4.1-19.8-21.5-34.1-41.8-34.1H76.8V67.9
	c0-26.7,20.6-48.8,47.3-50.7c26.6-1.9,50.2,17.1,54,43.5l0.1,1c-11,4.5-17.4,16.1-15.4,27.8l2.3,13.8l-22.8,39.2
	c-3.1,5.3-3.1,11.8-0.1,17.1c3,5.3,8.6,8.6,14.7,8.6c1,0,2-0.1,2.9-0.2l81.9-13.8c6.5-1.1,11.8-5.9,13.6-12.3
	c1.8-6.4-0.3-13.2-5.3-17.5l-34.4-29.5l-2.3-13.8c-1.7-9.6-8.6-17.4-18-20.2l-0.4-2.6c-5-35.3-36.5-60.7-72.1-58.2
	C87.3,2.7,59.7,32.3,59.7,67.9v392.9H42.7v-8.5c0-4.7-3.8-8.5-8.5-8.5c-4.7,0-8.5,3.8-8.5,8.5v12.1C10.1,471.2,0,486.5,0,503.5
	c0,4.7,3.8,8.5,8.5,8.5h494.9c4.7,0,8.5-3.8,8.5-8.5c0-4.7-3.8-8.5-8.5-8.5h-19.2L472,452C494.4,450.6,511.9,432.1,512,409.6z
	 M186.6,76.9c0.5-0.1,0.9-0.1,1.4-0.1c4.2,0,7.7,3,8.4,7.1l1.4,8.4l-16.8,2.8l-1.4-8.4C178.9,82.1,182,77.7,186.6,76.9z
	 M205.2,108.4l33.8,28.9l-0.1,0l-81.9,13.8l22.4-38.4L205.2,108.4z M18.5,494.9c3.6-10.2,13.3-17.1,24.1-17.1h51.2
	c10.8,0,20.5,6.8,24.1,17.1H18.5z M256,213.3c0-14.1,11.5-25.6,25.6-25.6h136.5c14.1,0,25.6,11.5,25.6,25.6v86.9
	c-10.2,3.6-17,13.2-17.1,24v17.3c-7.3-5.6-16.3-8.7-25.6-8.8h-30.6h-41.2h-30.6c-9.3,0-18.3,3.1-25.6,8.8v-17.3
	c0-10.8-6.9-20.4-17.1-24V213.3z M273.1,384v-8.5c0-14.1,11.5-25.6,25.6-25.6h102.4c14.1,0,25.6,11.5,25.6,25.6v8.5H273.1z
	 M426.7,401.1v34.1H273.1v-34.1H426.7z M204.8,409.6v-85.3c0-4.7,3.8-8.5,8.5-8.5h34.1c4.7,0,8.5,3.8,8.5,8.5v110.9h-25.6
	C216.3,435.2,204.8,423.7,204.8,409.6z M233.2,494.9l12.2-42.7h21.5l-24.4,42.7H233.2z M262.2,494.9l24.4-42.7h126.6l24.4,42.7
	H262.2z M457.2,494.9l-24.4-42.7h21.5l12.2,42.7H457.2z M494.9,409.6c0,14.1-11.5,25.6-25.6,25.6h-25.6V324.3c0-4.7,3.8-8.5,8.5-8.5
	h34.1c4.7,0,8.5,3.8,8.5,8.5V409.6z"/>
</svg>
