<?xml version="1.0" encoding="utf-8"?>
<!-- Generator: Adobe Illustrator 22.0.1, SVG Export Plug-In . SVG Version: 6.00 Build 0)  -->
<svg version="1.1" id="Layer_1" xmlns="http://www.w3.org/2000/svg" xmlns:xlink="http://www.w3.org/1999/xlink" x="0px" y="0px"
	 viewBox="0 0 512 512" style="enable-background:new 0 0 512 512;" xml:space="preserve">
<style type="text/css">
	.st0{fill:#9BC9FF;}
	.st1{fill:#57A4FF;}
</style>
<g id="_24_Hour-2">
	<path class="st0" d="M256,416c88.4,0,160-71.6,160-160S344.4,96,256,96S96,167.6,96,256C96,344.3,167.6,416,256,416
		C255.9,416,256,416,256,416z M256,128c70.7,0,128,57.3,128,128s-57.3,128-128,128s-128-57.3-128-128
		C128.1,185.3,185.3,128.1,256,128z"/>
	<g>
		<path class="st1" d="M256,16c-45.5-0.1-90,12.8-128.4,37.2l8.6,13.5C240.9,0.3,379.4,31.4,445.8,136s35.3,243.2-69.4,309.6
			s-243.2,35.3-309.6-69.4c-50.9-80.3-45.7-184,13.1-258.8V160h16V96c0-4.4-3.6-8-8-8c-0.7,0-1.3,0.1-1.9,0.2l-64,16l3.9,15.5
			l39.8-9.9c-80.7,105.1-61,255.8,44.2,336.5s255.8,61,336.5-44.2s61-255.8-44.2-336.5C360.3,33.4,308.9,16,256,16z"/>
		<path class="st1" d="M256,424c92.8,0,168-75.2,168-168S348.8,88,256,88S88,163.2,88,256C88.1,348.7,163.3,423.9,256,424z M256,104
			c83.9,0,152,68.1,152,152s-68.1,152-152,152s-152-68.1-152-152C104.1,172.1,172.1,104.1,256,104z"/>
		<path class="st1" d="M256,392c75.1,0,136-60.9,136-136s-60.9-136-136-136s-136,60.9-136,136C120.1,331.1,180.9,391.9,256,392z
			 M256,136c66.3,0,120,53.7,120,120s-53.7,120-120,120s-120-53.7-120-120C136.1,189.8,189.8,136.1,256,136z"/>
		<path class="st1" d="M192,312h56v-16h-48v-32h40c4.4,0,8-3.6,8-8v-48c0-4.4-3.6-8-8-8h-56v16h48v32h-40c-4.4,0-8,3.6-8,8v48
			C184,308.4,187.6,312,192,312z"/>
		<path class="st1" d="M264,200v56c0,4.4,3.6,8,8,8h40v48h16V200h-16v48h-32v-48H264z"/>
		<path class="st1" d="M248,152h16v16h-16V152z"/>
		<path class="st1" d="M152,248h16v16h-16V248z"/>
		<path class="st1" d="M248,344h16v16h-16V344z"/>
		<path class="st1" d="M344,248h16v16h-16V248z"/>
	</g>
</g>
</svg>
