<?xml version="1.0" encoding="utf-8"?>
<!-- Generator: Adobe Illustrator 22.0.1, SVG Export Plug-In . SVG Version: 6.00 Build 0)  -->
<svg version="1.1" id="Layer_1" xmlns="http://www.w3.org/2000/svg" xmlns:xlink="http://www.w3.org/1999/xlink" x="0px" y="0px"
	 viewBox="0 0 512 512" style="enable-background:new 0 0 512 512;" xml:space="preserve">
<path d="M508,177.2c-2.9-3.2-7.1-5.1-11.5-5.1h-10.7c-2,0-4,0.3-5.9,0.8v-41.4c0-17.4-14.2-31.5-31.6-31.5H280
	c-9.6,0-18.3,4.3-24,11.2c-5.8-6.8-14.4-11.2-24-11.2H63.6c-17.4,0-31.6,14.2-31.6,31.5v41.4c-1.9-0.5-3.9-0.8-5.9-0.8H15.5
	c-4.4,0-8.5,1.9-11.5,5.1s-4.4,7.6-4,11.9l13.8,145.1c1.2,12.1,11.2,21.3,23.4,21.3h1.6L32.1,403c-0.3,2.2,0.3,4.3,1.8,6
	s3.5,2.6,5.7,2.6h16c3,0,5.7-1.8,6.9-4.5l22.1-51.6h11.1c4.1,0,7.5-3.4,7.5-7.5c0-4.1-3.4-7.5-7.5-7.5H37.3c-4.4,0-8.1-3.3-8.5-7.7
	L15,187.7c0-0.1,0-0.2,0.1-0.4c0.2-0.2,0.3-0.2,0.4-0.2h10.7c4.1,0,7.7,2.9,8.4,7l13.5,74.3v7.3c0,13,10.6,23.5,23.5,23.5H240
	c6.2,0,11.8-2.4,16-6.3c4.2,3.9,9.8,6.3,16,6.3h168.3c13,0,23.5-10.6,23.5-23.5v-7.3l13.5-74.3c0.7-4.1,4.3-7,8.4-7h10.7
	c0.1,0,0.2,0,0.4,0.2c0.2,0.2,0.1,0.3,0.1,0.4l-13.8,145.1c-0.4,4.4-4.1,7.7-8.5,7.7H127.7c-4.1,0-7.5,3.4-7.5,7.5
	c0,4.1,3.4,7.5,7.5,7.5h299.7l22.1,51.6c1.2,2.8,3.9,4.5,6.9,4.5h16c2.2,0,4.2-0.9,5.7-2.6s2.1-3.8,1.8-6l-6.8-47.6h1.6
	c12.2,0,22.3-9.2,23.4-21.3l13.8-145.1C512.3,184.8,510.9,180.4,508,177.2z M50.7,396.6h-2.4l5.9-41.1h14.2L50.7,396.6z M63.6,115
	H232c9.1,0,16.5,7.4,16.5,16.5v88.2c0,4.7-3.8,8.5-8.5,8.5H71.6c-5.5,0-10.6,1.9-14.7,5.1l-7.6-41.9c-0.4-2.4-1.2-4.6-2.3-6.6v-53.3
	C47.1,122.4,54.5,115,63.6,115z M240,284.4H71.6c-4.7,0-8.5-3.8-8.5-8.5v-24c0-4.7,3.8-8.5,8.5-8.5H240c4.7,0,8.5,3.8,8.5,8.5v24
	C248.5,280.5,244.7,284.4,240,284.4z M448.9,275.8c0,4.7-3.8,8.5-8.5,8.5H272c-4.7,0-8.5-3.8-8.5-8.5v-24.1c0-4.7,3.8-8.5,8.5-8.5
	h128.3c4.1,0,7.5-3.4,7.5-7.5c0-4.1-3.4-7.5-7.5-7.5H272c-4.7,0-8.5-3.8-8.5-8.5v-88.2c0-9.1,7.4-16.6,16.5-16.6h168.3
	c9.1,0,16.5,7.4,16.5,16.6v53.3c-1.1,2-1.8,4.3-2.3,6.6l-7.6,41.9c-4-3.2-9.1-5.2-14.7-5.2h-8c-4.1,0-7.5,3.4-7.5,7.5
	c0,4.1,3.4,7.5,7.5,7.5h8c4.7,0,8.5,3.8,8.5,8.5L448.9,275.8L448.9,275.8z M463.8,396.6h-2.4l-17.6-41.1h14.2L463.8,396.6z"/>
<path d="M111.8,171.1c4.1,0,7.5-3.4,7.5-7.5s-3.4-7.5-7.5-7.5h-0.1c-4.1,0-7.5,3.4-7.5,7.5S107.6,171.1,111.8,171.1z"/>
<path d="M400.3,156.1L400.3,156.1c-4.2,0-7.5,3.4-7.5,7.5s3.4,7.5,7.5,7.5c4.1,0,7.5-3.4,7.5-7.5S404.4,156.1,400.3,156.1z"/>
<path d="M183.9,171.1c4.1,0,7.5-3.4,7.5-7.5s-3.4-7.5-7.5-7.5h-0.1c-4.1,0-7.5,3.4-7.5,7.5S179.8,171.1,183.9,171.1z"/>
<path d="M328.2,156.1L328.2,156.1c-4.2,0-7.5,3.4-7.5,7.5s3.4,7.5,7.5,7.5c4.1,0,7.5-3.4,7.5-7.5S332.4,156.1,328.2,156.1z"/>
</svg>
