<?xml version="1.0" encoding="utf-8"?>
<!-- Generator: Adobe Illustrator 22.0.1, SVG Export Plug-In . SVG Version: 6.00 Build 0)  -->
<svg version="1.1" id="Isolation_Mode" xmlns="http://www.w3.org/2000/svg" xmlns:xlink="http://www.w3.org/1999/xlink" x="0px"
	 y="0px" viewBox="0 0 379.7 68.6" style="enable-background:new 0 0 379.7 68.6;" xml:space="preserve">
<style type="text/css">
	.st0{fill:#FFFFFF;}
	.st1{clip-path:url(#SVGID_2_);fill:#FFFFFF;}
</style>
<path class="st0" d="M0,8v1.8h11.7V43h1.8V9.8h1.8V43H17V9.8h1.8V43h1.8V9.8h11.7V8H0z M0,6.2h32.3V4.4H0V6.2z M0,2.6h32.3V0.8H0
	V2.6z"/>
<g>
	<defs>
		<rect id="SVGID_1_" y="0" width="379.7" height="68.6"/>
	</defs>
	<clipPath id="SVGID_2_">
		<use xlink:href="#SVGID_1_"  style="overflow:visible;"/>
	</clipPath>
	<path class="st1" d="M45.1,9.8h-1.8V43h-1.8V9.8h-1.8V43h-1.8V8h18.4c3.2,0,5.9,2.6,5.9,5.9s-2.6,5.8-5.9,5.8h-9.4v1.8h9.4
		c4.2,0,7.6-3.3,7.6-7.6c0-4.2-3.4-7.7-7.6-7.7H37.9V4.4h18.4c5.2,0,9.4,4.2,9.4,9.4c0,5.2-4.2,9.4-9.4,9.4h-9.4V25h9.4
		c6.2,0,11.2-5,11.2-11.2c0-6.2-5-11.2-11.2-11.2H37.9V0.8h18.4c7.2,0,13,5.9,13,13c0,5.6-3.6,10.4-8.6,12.2L69.9,43h-2.1l-8.9-16.4
		c-0.6,0.1-1.2,0.2-1.9,0.2L65.9,43h-2.2l-8.8-16.1h-2L61.7,43h-2l-8.8-16.1h-4V43h-1.8V9.8z M46.9,9.8v8.1h9.4c2.3,0,4.1-1.7,4.1-4
		s-1.8-4.1-4.1-4.1H46.9z"/>
	<path class="st1" d="M76.6,0.8h1.8V43h-1.8V0.8z M80.2,0.8H82V43h-1.8V0.8z M83.8,0.8h1.8V43h-1.8V0.8z"/>
	<path class="st1" d="M94.3,0.8h1.8V43h-1.8V0.8z M103.3,16.8V43h-1.8V11.8l-1.8-4.9v36h-1.8V0.8h1.6l14.8,40.8l1-2.6L101.3,0.8h2
		l12.9,35.4l0.9-2.6L105.2,0.8h1.9L118,31.1l11.1-30.2h1.9L115.6,43h-2.7L103.3,16.8z M132.8,16.7L123.3,43h-1.9l11.5-31.5V6.2
		L119.5,43h-1.9l15.3-42.1h1.8V43h-1.8V16.7z M136.4,0.8h1.8V43h-1.8V0.8z M140,0.8h1.8V43H140V0.8z"/>
	<path class="st1" d="M167.7,37.1c2.7,2.8,7,4.9,11.8,4.9c7.1,0,13.3-4.5,13.3-11.3c0-4.5-2.8-9-7.3-10.4l-7.5-2
		c-2.4-0.6-3.8-3-3.8-5.3c0-3.6,3.1-5.9,6.8-5.9c2.4,0,4.8,1,6.1,2.5l-1.6,1C184.8,9.7,182.9,9,181,9c-2.9,0-5,1.7-5,4.2
		c0,1.6,1,3.2,2.6,3.5l7.5,2.2c5.4,1.3,8.4,6.7,8.4,12c0,7.8-7,13-14.9,13c-5.6,0-10.6-2.3-13.4-5.5L167.7,37.1z M179.4,34.8
		c3.5,0,6.1-1.6,6.1-4.1c0-1.6-1-3.2-2.6-3.5l-7.5-2.2c-5.4-1.3-8.4-6.6-8.4-11.9C167,5.2,173.7,0,181,0c4.8,0,9,2,11.5,4.8L191.1,6
		c-2.5-2.6-5.9-4.2-10.1-4.2c-6.5,0-12.2,4.6-12.2,11.4c0,4.5,2.7,9,7.2,10.3l7.5,2c2.4,0.7,3.7,3,3.7,5.4c0,3.5-3.5,5.8-7.7,5.8
		c-3.2,0-6.2-1.3-7.8-2.8l1.6-1.1C174.5,33.8,176.9,34.8,179.4,34.8 M179.4,38.4c5.2,0,9.7-2.9,9.7-7.5c0-3-1.9-6.3-4.9-7.2l-7.5-2
		c-3.9-1-6.1-5-6.1-8.8c0-5.6,4.8-9.4,10.3-9.4c3.6,0,6.9,1.6,8.7,3.6l-1.3,1.1c-1.6-1.6-4.2-2.9-7.2-2.9c-4.6,0-8.7,3-8.7,7.6
		c0,3,1.8,6.3,4.9,7.1l7.5,2c3.9,1.1,6,5,6,9c0,5.6-5.3,9.2-11.4,9.2c-4.2,0-8.2-1.9-10.3-4.1l1.3-1.3
		C172.3,37,175.8,38.4,179.4,38.4"/>
	<path class="st1" d="M199.1,0.8h32.3v1.8h-32.3V0.8z M199.1,4.4h32.3v1.8h-32.3V4.4z M217.9,9.8h-1.8V43h-1.8V9.8h-1.8V43h-1.8V9.8
		h-11.7V8h32.3v1.8h-11.7V43h-1.8V9.8z"/>
	<path class="st1" d="M244.2,9.8h-1.8V43h-1.8V9.8h-1.8V43H237V8h18.4c3.2,0,5.9,2.6,5.9,5.9s-2.6,5.8-5.9,5.8H246v1.8h9.4
		c4.2,0,7.6-3.3,7.6-7.6c0-4.2-3.4-7.7-7.6-7.7H237V4.4h18.4c5.2,0,9.4,4.2,9.4,9.4c0,5.2-4.2,9.4-9.4,9.4H246V25h9.4
		c6.2,0,11.2-5,11.2-11.2c0-6.2-5-11.2-11.2-11.2H237V0.8h18.4c7.2,0,13,5.9,13,13c0,5.6-3.6,10.4-8.6,12.2L269,43h-2.1L258,26.6
		c-0.6,0.1-1.2,0.2-1.9,0.2L265,43h-2.2L254,26.8h-2l8.7,16.1h-2L250,26.8h-4V43h-1.8V9.8z M246,9.8v8.1h9.4c2.3,0,4.1-1.7,4.1-4
		s-1.8-4.1-4.1-4.1H246z"/>
	<path class="st1" d="M275.7,0.8h28.7v1.8h-28.7V0.8z M275.7,4.4h28.7v1.8h-28.7V4.4z M282.9,9.8h-1.8V43h-1.8V9.8h-1.8V43h-1.8V8
		h28.7v1.8h-19.7V17h18.8v1.8h-18.8v1.8h18.8v1.8h-18.8v1.8h18.8v1.8h-18.8V34h20.6v1.8h-20.6v1.8h20.6v1.8h-20.6v1.8h20.6V43h-22.4
		V9.8z"/>
	<path class="st1" d="M313.4,0.8h28.7v1.8h-28.7V0.8z M313.4,4.4h28.7v1.8h-28.7V4.4z M320.5,9.8h-1.8V43H317V9.8h-1.8V43h-1.8V8
		h28.7v1.8h-19.7V17h18.8v1.8h-18.8v1.8h18.8v1.8h-18.8v1.8h18.8v1.8h-18.8V34H343v1.8h-20.6v1.8H343v1.8h-20.6v1.8H343V43h-22.4
		V9.8z"/>
	<path class="st1" d="M347.4,0.8h32.3v1.8h-32.3V0.8z M347.4,4.4h32.3v1.8h-32.3V4.4z M366.3,9.8h-1.8V43h-1.8V9.8h-1.8V43h-1.8V9.8
		h-11.7V8h32.3v1.8h-11.7V43h-1.8V9.8z"/>
	<path class="st1" d="M324.7,57.5c0,1.6-1,2.8-2.5,3.3c1.9,0.5,3,2.1,3,3.8c0,3.1-2.9,4-5.5,4h-6.3V53.3h6.3
		C322.3,53.3,324.7,54.6,324.7,57.5 M314.6,60.2h5.2c1.8,0,3.8-0.6,3.8-2.8c0-2.2-2-3.2-3.9-3.2h-5.1V60.2z M314.6,67.5h5.1
		c1.9,0,4.4-0.5,4.4-2.9c0-2.4-2.2-3.2-4.2-3.2h-5.2V67.5z"/>
	<path class="st1" d="M340.4,68.6l-1.7-3.8h-9.1l-1.7,3.8h-1.3l6.9-15.3h1.3l6.9,15.3H340.4z M338.2,63.7l-4.1-9.3l-4.1,9.3H338.2z"
		/>
	<polygon class="st1" points="346.6,54.4 341.1,54.4 341.1,53.3 353.3,53.3 353.3,54.4 347.8,54.4 347.8,68.6 346.6,68.6 	"/>
	<polygon class="st1" points="366.7,68.6 366.7,61.6 357,61.6 357,68.6 355.8,68.6 355.8,53.3 357,53.3 357,60.6 366.7,60.6 
		366.7,53.3 367.9,53.3 367.9,68.6 	"/>
</g>
</svg>
