<?xml version="1.0" encoding="UTF-8"?><!DOCTYPE svg PUBLIC "-//W3C//DTD SVG 1.1//EN" "http://www.w3.org/Graphics/SVG/1.1/DTD/svg11.dtd"><svg xmlns="http://www.w3.org/2000/svg" xmlns:xlink="http://www.w3.org/1999/xlink"><defs><path id="SVGID_1_" d="M0 0h379.7v68.6H0z"/></defs><symbol id="icon-of-1" viewBox="0 0 512 512"><style>.st1{fill:#57a4ff}</style><g id="_24_Hour-2"><path d="M256 416c88.4 0 160-71.6 160-160S344.4 96 256 96 96 167.6 96 256c0 88.3 71.6 160 160 160-.1 0 0 0 0 0zm0-288c70.7 0 128 57.3 128 128s-57.3 128-128 128-128-57.3-128-128c.1-70.7 57.3-127.9 128-128z" fill="#9bc9ff"/><path class="st1" d="M256 16c-45.5-.1-90 12.8-128.4 37.2l8.6 13.5C240.9.3 379.4 31.4 445.8 136s35.3 243.2-69.4 309.6-243.2 35.3-309.6-69.4c-50.9-80.3-45.7-184 13.1-258.8V160h16V96c0-4.4-3.6-8-8-8-.7 0-1.3.1-1.9.2l-64 16 3.9 15.5 39.8-9.9c-80.7 105.1-61 255.8 44.2 336.5s255.8 61 336.5-44.2 61-255.8-44.2-336.5C360.3 33.4 308.9 16 256 16z"/><path class="st1" d="M256 424c92.8 0 168-75.2 168-168S348.8 88 256 88 88 163.2 88 256c.1 92.7 75.3 167.9 168 168zm0-320c83.9 0 152 68.1 152 152s-68.1 152-152 152-152-68.1-152-152c.1-83.9 68.1-151.9 152-152z"/><path class="st1" d="M256 392c75.1 0 136-60.9 136-136s-60.9-136-136-136-136 60.9-136 136c.1 75.1 60.9 135.9 136 136zm0-256c66.3 0 120 53.7 120 120s-53.7 120-120 120-120-53.7-120-120c.1-66.2 53.8-119.9 120-120z"/><path class="st1" d="M192 312h56v-16h-48v-32h40c4.4 0 8-3.6 8-8v-48c0-4.4-3.6-8-8-8h-56v16h48v32h-40c-4.4 0-8 3.6-8 8v48c0 4.4 3.6 8 8 8zM264 200v56c0 4.4 3.6 8 8 8h40v48h16V200h-16v48h-32v-48h-16zM248 152h16v16h-16v-16zM152 248h16v16h-16v-16zM248 344h16v16h-16v-16zM344 248h16v16h-16v-16z"/></g></symbol><symbol id="icon-of-10" viewBox="0 0 512 512"><path d="M429.4 120.1c4.8-12.8 1-27.9-10.5-36.5-12.5-9.4-29.7-8.2-40.7 2.1-8.8-3.8-18.1-6.9-27.6-9.3-42.6-10.7-87.4-6-126 13.4-39 19.5-67.1 51.4-79.3 90-11.4 36.2-7.4 74.3 11.2 107.8l-10.6 55.7c-.6 3.2.3 6.4 2.5 8.8s5.3 3.6 8.5 3.3l62.6-6.3c12.8 6.9 26.7 12.3 41.3 16 14.7 3.7 29.8 5.5 44.9 5.5 22.8 0 45.6-4.2 66.7-12.5 5.2-2.1 7.8-8 5.8-13.2s-8-7.8-13.2-5.8c-31.1 12.2-66.4 14.4-99.2 6.2-13.9-3.5-27.1-8.8-39.1-15.6-2.1-1.2-4.5-1.6-6.7-1.2l-51.4 5.2 8.7-46c.5-2.4 0-4.9-1.2-7.1-17.3-29.2-21.3-62.9-11.2-94.7 21.8-69.1 103-109.4 181-89.8 7.8 2 15.5 4.5 22.8 7.6-1.9 11.3 2.4 23.2 12.1 30.6 5.7 4.3 12.4 6.4 19.1 6.4 5.8 0 11.6-1.6 16.7-4.7 31.9 32.7 43.5 77.7 30.3 119.5-4.8 15.2-12.5 29.3-23.1 41.9-3.6 4.3-3 10.7 1.3 14.3 1.9 1.6 4.2 2.4 6.5 2.4 2.9 0 5.8-1.2 7.8-3.7 12.2-14.7 21.2-31.1 26.8-48.8 15.6-49.8 1.5-103.3-36.8-141.5zm-36.6-2.1c-5-3.8-6-10.9-2.2-15.9 2.2-2.9 5.6-4.5 9.1-4.5 2.4 0 4.8.8 6.9 2.3 5 3.8 6 10.9 2.2 15.9s-11 5.9-16 2.2z"/><path d="M388.7 58.5c14.8-3.2 30.1.2 42.1 9.3 13.2 9.9 20.6 25.1 20.5 41.6-.1 5.6 4.5 10.2 10.1 10.3h.1c5.6 0 10.1-4.5 10.2-10.1.2-22.7-10.5-44.4-28.5-58-16.7-12.7-38.1-17.4-58.7-12.9-5.5 1.2-9 6.6-7.8 12.1 1.1 5.4 6.5 8.9 12 7.7z"/><path d="M466.5 20.7C442.7 2.7 412.3-4 383.1 2.3c-5.5 1.2-9 6.6-7.8 12.1 1.2 5.5 6.6 9 12.1 7.8 23.4-5.1 47.7.3 66.8 14.7 20.8 15.8 32.7 39.8 32.5 66 0 5.6 4.5 10.2 10.1 10.3h.1c5.6 0 10.1-4.5 10.2-10.1.2-32.2-15-63-40.6-82.4zM254.4 411.2c-27-19.1-43.8-25.1-66.3-8.1-.5.4-.9.7-1.3 1.2-4.6.6-21.9-5-39.9-22.9-4.1-4.1-8.4-8.8-12.5-13.8-4.2-5.2-7.9-10.3-11.1-15.1-13.9-21.2-15.9-39.2-14.4-43.7.5-.3 1-.6 1.4-1 21.3-18.6 18.7-36.3 5.5-66.6-7.8-19.2-16.7-38.5-31.3-44.5-11.2-4.6-27.8 1.9-33.2 4.8-12.6 6.7-25.2 19.4-32.9 33.1-14 25.2-14.3 57-9.9 78.5C22 378.3 101 475.3 162.2 501.6c13.3 5.7 31.5 10.4 50.2 10.4 9.6 0 19.4-1.2 28.7-4.1 15.3-4.8 30-14.3 39.1-25.5 3.9-4.7 13.6-19.7 11.4-31.6-2.8-15.5-19.9-28.1-37.2-39.6zm10.2 58.2c-6.6 8-18.2 15.4-29.5 19-22.2 7-48.8 1.4-64.8-5.5-25.8-11.1-58.3-38.7-87-73.8C54.6 374 34.1 336.5 28.5 309c-3.5-17.1-3.6-44.2 7.7-64.5 5.8-10.4 15.4-20.2 24.6-25.1 4.6-2.4 11.4-4.1 14.7-4.1.5 0 1 0 1.3.1 7.9 3.3 16.5 24.4 20.2 33.5 0 .1.1.2.1.3 12.7 29 9.8 34.3.7 42.4-3.1 1.8-6.5 5.2-8.4 11.4-4.3 14.4 2.5 38.8 16.9 60.6 3.5 5.4 7.7 11 12.3 16.8 4.6 5.6 9.3 10.8 13.9 15.4 18.5 18.5 41 30 55.9 28.8 6.5-.5 10.5-3.3 12.8-5.9 9.8-7.3 15.6-9 41.5 9.3l.2.2c8.1 5.4 27.1 18.1 28.7 26.4.3 2.3-3.2 10.2-7 14.8zM226.3 190.3l-11 29.9-11-29.9v-.1c-1.8-4.4-5.2-7-10-7-3 0-5.6 1.1-7.7 3.1-2.1 2-3.3 4.6-3.3 7.5 0 .9.1 1.7.3 2.6.2.7.3 1.3.6 2v.1l20.8 52.1c.9 2.1 2.2 4.6 4 6.1 1.9 1.5 4.4 1.9 6.7 1.9 5.2 0 8.4-3.6 10.2-8.1l20.7-52c.6-1.5.9-3.1.9-4.8 0-2.9-1.1-5.5-3.2-7.6-2.2-2-4.8-3.1-7.8-3.1-4.9.2-8.5 2.8-10.2 7.3zM420.4 190.2c-5.3-5.1-12.1-7.3-19.4-7.3h-17.7c-3 0-5.7 1.1-7.9 3.3-2.2 2.2-3.2 4.9-3.2 7.9v52.4c0 3 1.1 5.7 3.2 7.8 2.1 2.1 4.7 3.2 7.6 3.2s5.5-1.1 7.6-3.2c2.1-2.1 3.2-4.7 3.2-7.6v-12h8.1c7.1 0 13.8-2 18.9-7.1 5.1-5 7.2-11.5 7.2-18.6.1-7.2-2.3-13.7-7.6-18.8zm-16.2 23.1c-1.2 1.1-2.4 1.8-4 1.8h-6.4V203h6.5c1.6 0 2.9.5 4 1.7 1.2 1.3 1.7 2.7 1.7 4.4 0 1.7-.6 3-1.8 4.2zM288.7 182.7c-10.2 0-19 3.3-26.1 10.7-7.1 7.5-10.1 16.9-10.1 27.2 0 10.4 3 19.9 10.2 27.5 7 7.4 15.8 10.9 25.9 10.9 10.2 0 19-3.5 26-11 7.1-7.6 10.1-16.9 10.1-27.1 0-10.3-3-19.7-10.1-27.3-6.9-7.4-15.7-10.9-25.9-10.9zm9.8 51.6c-2.6 3.2-5.8 4.7-9.8 4.7-4.1 0-7.3-1.4-9.9-4.6-3.1-3.8-3.9-8.8-3.9-13.6 0-4.8.9-9.5 4-13.3 2.6-3.1 5.7-4.6 9.8-4.6 4.1 0 7.3 1.4 9.9 4.6 3 3.8 3.9 8.7 3.9 13.5 0 4.7-1 9.5-4 13.3zM340.4 185.6c-2 2.1-3.2 4.7-3.2 7.6v53.5c0 2.9 1.1 5.6 3.1 7.6 2.1 2.1 4.7 3.2 7.7 3.2s5.6-1.1 7.7-3.2c2.1-2 3.1-4.6 3.1-7.6v-53.6c0-3-1-5.6-3.1-7.7s-4.6-3.3-7.6-3.3c-3 .1-5.7 1.3-7.7 3.5zM395.9 322.5l-.2.1c-4.7 3.1-5.9 9.4-2.8 14.1 2 2.9 5.2 4.5 8.5 4.5 1.9 0 3.9-.6 5.6-1.7l.2-.1c4.7-3.1 5.9-9.4 2.8-14.1-3.1-4.6-9.4-5.9-14.1-2.8z"/></symbol><symbol id="icon-of-11" viewBox="0 0 54.9 54.9"><path d="M54.6 19.1C47.4 11.9 37.7 7.9 27.5 7.9S7.6 11.9.3 19.1c-.4.4-.4 1 0 1.4s1 .4 1.4 0c6.9-6.9 16-10.6 25.7-10.6s18.9 3.8 25.7 10.6c.2.2.5.3.7.3s.5-.1.7-.3c.5-.4.5-1 .1-1.4z"/><path d="M6.2 25c-.4.4-.4 1 0 1.4.2.2.5.3.7.3s.5-.1.7-.3c11-11 28.8-11 39.7 0 .4.4 1 .4 1.4 0s.4-1 0-1.4C37 13.3 17.9 13.3 6.2 25z"/><path d="M27.5 24.5c-5.8 0-11.3 2.3-15.4 6.4-.4.4-.4 1 0 1.4s1 .4 1.4 0c3.7-3.7 8.7-5.8 14-5.8s10.3 2.1 14 5.8c.2.2.5.3.7.3s.5-.1.7-.3c.4-.4.4-1 0-1.4-4.1-4.1-9.6-6.4-15.4-6.4zM27.5 33.9c-3.6 0-6.6 2.9-6.6 6.6s2.9 6.6 6.6 6.6c3.6 0 6.6-2.9 6.6-6.6s-3-6.6-6.6-6.6zm0 11.1c-2.5 0-4.6-2-4.6-4.6s2-4.6 4.6-4.6 4.6 2 4.6 4.6S30 45 27.5 45z"/></symbol><symbol id="icon-of-12" viewBox="0 0 60 60"><path d="M45 25H20c-.6 0-1 .4-1 1s.4 1 1 1h25c.6 0 1-.4 1-1s-.4-1-1-1zM20 19h10c.6 0 1-.4 1-1s-.4-1-1-1H20c-.6 0-1 .4-1 1s.4 1 1 1zM45 33H20c-.6 0-1 .4-1 1s.4 1 1 1h25c.6 0 1-.4 1-1s-.4-1-1-1zM45 41H20c-.6 0-1 .4-1 1s.4 1 1 1h25c.6 0 1-.4 1-1s-.4-1-1-1zM45 49H20c-.6 0-1 .4-1 1s.4 1 1 1h25c.6 0 1-.4 1-1s-.4-1-1-1z"/><path d="M49 14.6V0H6v55h5v5h43V19.6l-5-5zm-9-6.2l9 9 1.6 1.6H40V8.4zM8 53V2h39v10.6L39.4 5H11v48H8zm5 5V7h25v14h14v37H13z"/></symbol><symbol id="icon-of-2" viewBox="0 0 512 512"><path d="M187.7 315.7c0 4.7 3.8 8.5 8.5 8.5h34.1c4.7 0 8.5-3.8 8.5-8.5v-51.2c0-4.7-3.8-8.5-8.5-8.5h-34.1c-4.7 0-8.5 3.8-8.5 8.5v51.2zm17.1-42.6h17.1v34.1h-17.1v-34.1zM196.3 221.9h34.1c4.7 0 8.5-3.8 8.5-8.5v-51.2c0-4.7-3.8-8.5-8.5-8.5h-34.1c-4.7 0-8.5 3.8-8.5 8.5v51.2c-.1 4.6 3.8 8.5 8.5 8.5zm8.5-51.2h17.1v34.1h-17.1v-34.1z"/><path d="M132.4 160.9L256 86.7l123.6 74.2c1.4.8 2.9 1.2 4.4 1.2 2.9 0 5.7-1.5 7.3-4.1 2.4-4 1.1-9.3-2.9-11.7L264.5 72V17.1h42.7v17.1h-25.6c-4.7 0-8.5 3.8-8.5 8.5s3.8 8.5 8.5 8.5h34.1c4.7 0 8.5-3.8 8.5-8.5V8.5c0-4.7-3.8-8.5-8.5-8.5H256c-4.7 0-8.5 3.8-8.5 8.5V72l-123.9 74.3c-4 2.4-5.3 7.7-2.9 11.7 2.4 4 7.7 5.3 11.7 2.9zM93.9 324.3c4.7 0 8.5-3.8 8.5-8.5v-51.2c0-4.7-3.8-8.5-8.5-8.5H59.7c-4.7 0-8.5 3.8-8.5 8.5v17.1c0 4.7 3.8 8.5 8.5 8.5s8.5-3.8 8.5-8.5v-8.5h17.1v42.7c0 4.5 3.9 8.4 8.6 8.4zM153.6 435.2V187.7c0-4.7-3.8-8.5-8.5-8.5s-8.5 3.8-8.5 8.5v247.5c0 4.7 3.8 8.5 8.5 8.5s8.5-3.8 8.5-8.5z"/><path d="M110.9 477.9H401c4.7 0 8.5-3.8 8.5-8.5s-3.8-8.5-8.5-8.5h-76.8v-85.3h8.5c4.7 0 8.5-3.8 8.5-8.5s-3.8-8.5-8.5-8.5H179.2c-4.7 0-8.5 3.8-8.5 8.5s3.8 8.5 8.5 8.5h8.5v85.3h-76.8c-4.7 0-8.5 3.8-8.5 8.5s3.8 8.5 8.5 8.5zm153.6-51.2c4.7 0 8.5-3.8 8.5-8.5s-3.8-8.5-8.5-8.5v-34.1h42.7v85.3h-42.7v-34.2zm-59.7-51.2h42.7v34.1c-4.7 0-8.5 3.8-8.5 8.5s3.8 8.5 8.5 8.5v34.1h-42.7v-85.2zM452.3 366.9h-34.1c-4.7 0-8.5 3.8-8.5 8.5v51.2c0 4.7 3.8 8.5 8.5 8.5h34.1c4.7 0 8.5-3.8 8.5-8.5v-51.2c0-4.6-3.8-8.5-8.5-8.5zm-8.6 51.2h-17.1V384h17.1v34.1zM452.3 264.5h-34.1c-4.7 0-8.5 3.8-8.5 8.5v51.2c0 4.7 3.8 8.5 8.5 8.5h34.1c4.7 0 8.5-3.8 8.5-8.5V273c0-4.6-3.8-8.5-8.5-8.5zm-8.6 51.2h-17.1v-34.1h17.1v34.1zM435.2 494.9H76.8c-4.7 0-8.5 3.8-8.5 8.5s3.8 8.5 8.5 8.5h358.4c4.7 0 8.5-3.8 8.5-8.5s-3.8-8.5-8.5-8.5z"/><path d="M503.5 187.7c-4.7 0-8.5 3.8-8.5 8.5v8.5h-93.9c-4.7 0-8.5 3.8-8.5 8.5s3.8 8.5 8.5 8.5H495v281.6c0 4.7 3.8 8.5 8.5 8.5s8.5-3.8 8.5-8.5v-307c0-4.7-3.8-8.6-8.5-8.6zM273.1 315.7c0 4.7 3.8 8.5 8.5 8.5h34.1c4.7 0 8.5-3.8 8.5-8.5v-51.2c0-4.7-3.8-8.5-8.5-8.5h-34.1c-4.7 0-8.5 3.8-8.5 8.5v51.2zm17-42.6h17.1v34.1h-17.1v-34.1zM85.3 418.1c0-1.1-.5-110.9-42.7-110.9C.5 307.2 0 417 0 418.1c0 20.6 14.7 37.8 34.1 41.8v43.5c0 4.7 3.8 8.5 8.5 8.5s8.5-3.8 8.5-8.5v-43.5c19.5-3.9 34.2-21.2 34.2-41.8zm-42.6 25.6c-14.1 0-25.6-11.5-25.6-25.6 0-42.5 11.4-93.9 25.6-93.9s25.6 51.4 25.6 93.9c0 14.1-11.5 25.6-25.6 25.6zM375.5 435.2v-256c0-4.7-3.8-8.5-8.5-8.5s-8.5 3.8-8.5 8.5v256c0 4.7 3.8 8.5 8.5 8.5s8.5-3.8 8.5-8.5zM281.6 221.9h34.1c4.7 0 8.5-3.8 8.5-8.5v-51.2c0-4.7-3.8-8.5-8.5-8.5h-34.1c-4.7 0-8.5 3.8-8.5 8.5v51.2c0 4.6 3.8 8.5 8.5 8.5zm8.5-51.2h17.1v34.1h-17.1v-34.1zM8.5 298.7c4.7 0 8.5-3.8 8.5-8.5v-68.3h93.9c4.7 0 8.5-3.8 8.5-8.5s-3.8-8.5-8.5-8.5H17.1v-8.5c0-4.7-3.8-8.5-8.5-8.5S0 191.6 0 196.3v93.9c0 4.6 3.8 8.5 8.5 8.5z"/></symbol><symbol id="icon-of-3" viewBox="0 0 512 512"><path d="M512 409.6v-85.3c0-14.1-11.5-25.6-25.6-25.6h-25.6v-85.3c0-23.6-19.1-42.6-42.7-42.7H281.6c-23.6 0-42.6 19.1-42.7 42.7v85.3h-25.6c-14.1 0-25.6 11.5-25.6 25.6v85.3c.1 22.5 17.6 41 40 42.4l-12.3 42.9h-79.8c-4.1-19.8-21.5-34.1-41.8-34.1h-17V67.9c0-26.7 20.6-48.8 47.3-50.7 26.6-1.9 50.2 17.1 54 43.5l.1 1c-11 4.5-17.4 16.1-15.4 27.8l2.3 13.8-22.8 39.2c-3.1 5.3-3.1 11.8-.1 17.1 3 5.3 8.6 8.6 14.7 8.6 1 0 2-.1 2.9-.2l81.9-13.8c6.5-1.1 11.8-5.9 13.6-12.3 1.8-6.4-.3-13.2-5.3-17.5l-34.4-29.5-2.3-13.8c-1.7-9.6-8.6-17.4-18-20.2l-.4-2.6C189.9 23 158.4-2.4 122.8.1 87.3 2.7 59.7 32.3 59.7 67.9v392.9h-17v-8.5c0-4.7-3.8-8.5-8.5-8.5s-8.5 3.8-8.5 8.5v12.1C10.1 471.2 0 486.5 0 503.5c0 4.7 3.8 8.5 8.5 8.5h494.9c4.7 0 8.5-3.8 8.5-8.5s-3.8-8.5-8.5-8.5h-19.2L472 452c22.4-1.4 39.9-19.9 40-42.4zM186.6 76.9c.5-.1.9-.1 1.4-.1 4.2 0 7.7 3 8.4 7.1l1.4 8.4-16.8 2.8-1.4-8.4c-.7-4.6 2.4-9 7-9.8zm18.6 31.5l33.8 28.9h-.1L157 151.1l22.4-38.4 25.8-4.3zM18.5 494.9c3.6-10.2 13.3-17.1 24.1-17.1h51.2c10.8 0 20.5 6.8 24.1 17.1H18.5zM256 213.3c0-14.1 11.5-25.6 25.6-25.6h136.5c14.1 0 25.6 11.5 25.6 25.6v86.9c-10.2 3.6-17 13.2-17.1 24v17.3c-7.3-5.6-16.3-8.7-25.6-8.8H298.6c-9.3 0-18.3 3.1-25.6 8.8v-17.3c0-10.8-6.9-20.4-17.1-24v-86.9zM273.1 384v-8.5c0-14.1 11.5-25.6 25.6-25.6h102.4c14.1 0 25.6 11.5 25.6 25.6v8.5H273.1zm153.6 17.1v34.1H273.1v-34.1h153.6zm-221.9 8.5v-85.3c0-4.7 3.8-8.5 8.5-8.5h34.1c4.7 0 8.5 3.8 8.5 8.5v110.9h-25.6c-14 0-25.5-11.5-25.5-25.6zm28.4 85.3l12.2-42.7h21.5l-24.4 42.7h-9.3zm29 0l24.4-42.7h126.6l24.4 42.7H262.2zm195 0l-24.4-42.7h21.5l12.2 42.7h-9.3zm37.7-85.3c0 14.1-11.5 25.6-25.6 25.6h-25.6V324.3c0-4.7 3.8-8.5 8.5-8.5h34.1c4.7 0 8.5 3.8 8.5 8.5v85.3z"/></symbol><symbol id="icon-of-4" viewBox="0 0 480 480"><path d="M256 104h16v16h-16v-16zM304 104h16v16h-16v-16zM288 144c-4.4 0-8-3.6-8-8h-16c0 13.3 10.7 24 24 24s24-10.7 24-24h-16c0 4.4-3.6 8-8 8z"/><path d="M448 224.8V208h-16v16.8c-18.6 3.8-32 20.2-32 39.2v8h-16v-40c0-14.6-5.7-28.6-15.9-39l.3-.9c10.3-31 15.6-63.4 15.6-96.1 0-53-43-96-96-96s-96 43-96 96c0 32.7 5.3 65.1 15.6 96.1l.3.9c-10.2 10.4-15.9 24.4-15.9 39v40H99.5l6-16H152c13.3 0 24-10.7 24-24v-80c0-13.3-10.7-24-24-24H24c-13.3 0-24 10.7-24 24v80c0 13.3 10.7 24 24 24h16.5l-6 16H8c-4.4 0-8 3.6-8 8v192c0 4.4 3.6 8 8 8h464c4.4 0 8-3.6 8-8V264c0-19-13.4-35.4-32-39.2zM288 16c44.2 0 80 35.8 80 80 0 29.4-4.5 58.7-13.4 86.7-7.5-4.1-15.9-6.3-24.5-6.6C344 164 352 146.5 352 128V72c0-2.4-1.1-4.7-3-6.2s-4.3-2.1-6.7-1.6l-112 24c-3.7.8-6.3 4.1-6.3 7.8v32c0 18.5 8 36 21.9 48.1-8.6.3-16.9 2.6-24.5 6.6-8.9-28-13.4-57.3-13.4-86.7 0-44.2 35.8-80 80-80zm40 224v32h-32v-45.2l27.8-34.8h4.2c22.1 0 40 17.9 40 40v40h-24v-32h-16zm-24.6-48L288 211.2 272.6 192h30.8zM240 128v-25.5l96-20.6V128c0 26.5-21.5 48-48 48s-48-21.5-48-48zm-32 104c0-22.1 17.9-40 40-40h4.2l27.8 34.8V272h-32v-32h-16v32h-24v-40zM82.5 272h-31l18-48h30.9l-17.9 48zM24 240c-4.4 0-8-3.6-8-8v-80c0-4.4 3.6-8 8-8h128c4.4 0 8 3.6 8 8v80c0 4.4-3.6 8-8 8h-40.5l8-21.2c.9-2.5.6-5.2-.9-7.4s-4-3.4-6.6-3.4H64c-3.3 0-6.3 2.1-7.5 5.2l-10 26.8H24zm440 224H16V320h448v144zm0-160H16v-16h448v16zm0-32h-48v-8c0-13.3 10.7-24 24-24s24 10.7 24 24v8z"/></symbol><symbol id="icon-of-5" viewBox="0 0 512 512"><path d="M208 120h96c13.3 0 24-10.7 24-24V80c0-13.3-10.7-24-24-24h-96c-13.3 0-24 10.7-24 24v16c0 13.3 10.7 24 24 24zm-8-40c0-4.4 3.6-8 8-8h96c4.4 0 8 3.6 8 8v16c0 4.4-3.6 8-8 8h-96c-4.4 0-8-3.6-8-8V80zM40 120h96c13.3 0 24-10.7 24-24V80c0-13.3-10.7-24-24-24H40c-13.3 0-24 10.7-24 24v16c0 13.3 10.7 24 24 24zm-8-40c0-4.4 3.6-8 8-8h96c4.4 0 8 3.6 8 8v16c0 4.4-3.6 8-8 8H40c-4.4 0-8-3.6-8-8V80zM376 120h96c13.3 0 24-10.7 24-24V80c0-13.3-10.7-24-24-24h-96c-13.3 0-24 10.7-24 24v16c0 13.3 10.7 24 24 24zm-8-40c0-4.4 3.6-8 8-8h96c4.4 0 8 3.6 8 8v16c0 4.4-3.6 8-8 8h-96c-4.4 0-8-3.6-8-8V80zM304 392h-96c-13.3 0-24 10.7-24 24v16c0 13.3 10.7 24 24 24h96c13.3 0 24-10.7 24-24v-16c0-13.3-10.7-24-24-24zm8 40c0 4.4-3.6 8-8 8h-96c-4.4 0-8-3.6-8-8v-16c0-4.4 3.6-8 8-8h96c4.4 0 8 3.6 8 8v16zM136 392H40c-13.3 0-24 10.7-24 24v16c0 13.3 10.7 24 24 24h96c13.3 0 24-10.7 24-24v-16c0-13.3-10.7-24-24-24zm8 40c0 4.4-3.6 8-8 8H40c-4.4 0-8-3.6-8-8v-16c0-4.4 3.6-8 8-8h96c4.4 0 8 3.6 8 8v16zM472 392h-96c-13.3 0-24 10.7-24 24v16c0 13.3 10.7 24 24 24h96c13.3 0 24-10.7 24-24v-16c0-13.3-10.7-24-24-24zm8 40c0 4.4-3.6 8-8 8h-96c-4.4 0-8-3.6-8-8v-16c0-4.4 3.6-8 8-8h96c4.4 0 8 3.6 8 8v16zM496 136H16c-4.4 0-8 3.6-8 8v224c0 4.4 3.6 8 8 8h480c4.4 0 8-3.6 8-8V144c0-4.4-3.6-8-8-8zm-8 224H24V152h464v208z"/></symbol><symbol id="icon-of-6" viewBox="0 0 512 512"><path d="M508 177.2c-2.9-3.2-7.1-5.1-11.5-5.1h-10.7c-2 0-4 .3-5.9.8v-41.4c0-17.4-14.2-31.5-31.6-31.5H280c-9.6 0-18.3 4.3-24 11.2-5.8-6.8-14.4-11.2-24-11.2H63.6C46.2 100 32 114.2 32 131.5v41.4c-1.9-.5-3.9-.8-5.9-.8H15.5c-4.4 0-8.5 1.9-11.5 5.1s-4.4 7.6-4 11.9l13.8 145.1c1.2 12.1 11.2 21.3 23.4 21.3h1.6L32.1 403c-.3 2.2.3 4.3 1.8 6s3.5 2.6 5.7 2.6h16c3 0 5.7-1.8 6.9-4.5l22.1-51.6h11.1c4.1 0 7.5-3.4 7.5-7.5s-3.4-7.5-7.5-7.5H37.3c-4.4 0-8.1-3.3-8.5-7.7L15 187.7c0-.1 0-.2.1-.4.2-.2.3-.2.4-.2h10.7c4.1 0 7.7 2.9 8.4 7l13.5 74.3v7.3c0 13 10.6 23.5 23.5 23.5H240c6.2 0 11.8-2.4 16-6.3 4.2 3.9 9.8 6.3 16 6.3h168.3c13 0 23.5-10.6 23.5-23.5v-7.3l13.5-74.3c.7-4.1 4.3-7 8.4-7h10.7c.1 0 .2 0 .4.2s.1.3.1.4l-13.8 145.1c-.4 4.4-4.1 7.7-8.5 7.7H127.7c-4.1 0-7.5 3.4-7.5 7.5s3.4 7.5 7.5 7.5h299.7l22.1 51.6c1.2 2.8 3.9 4.5 6.9 4.5h16c2.2 0 4.2-.9 5.7-2.6s2.1-3.8 1.8-6l-6.8-47.6h1.6c12.2 0 22.3-9.2 23.4-21.3L511.9 189c.4-4.2-1-8.6-3.9-11.8zM50.7 396.6h-2.4l5.9-41.1h14.2l-17.7 41.1zM63.6 115H232c9.1 0 16.5 7.4 16.5 16.5v88.2c0 4.7-3.8 8.5-8.5 8.5H71.6c-5.5 0-10.6 1.9-14.7 5.1l-7.6-41.9c-.4-2.4-1.2-4.6-2.3-6.6v-53.3c.1-9.1 7.5-16.5 16.6-16.5zM240 284.4H71.6c-4.7 0-8.5-3.8-8.5-8.5v-24c0-4.7 3.8-8.5 8.5-8.5H240c4.7 0 8.5 3.8 8.5 8.5v24c0 4.6-3.8 8.5-8.5 8.5zm208.9-8.6c0 4.7-3.8 8.5-8.5 8.5H272c-4.7 0-8.5-3.8-8.5-8.5v-24.1c0-4.7 3.8-8.5 8.5-8.5h128.3c4.1 0 7.5-3.4 7.5-7.5s-3.4-7.5-7.5-7.5H272c-4.7 0-8.5-3.8-8.5-8.5v-88.2c0-9.1 7.4-16.6 16.5-16.6h168.3c9.1 0 16.5 7.4 16.5 16.6v53.3c-1.1 2-1.8 4.3-2.3 6.6l-7.6 41.9c-4-3.2-9.1-5.2-14.7-5.2h-8c-4.1 0-7.5 3.4-7.5 7.5s3.4 7.5 7.5 7.5h8c4.7 0 8.5 3.8 8.5 8.5l.2 24.2zm14.9 120.8h-2.4l-17.6-41.1H458l5.8 41.1z"/><path d="M111.8 171.1c4.1 0 7.5-3.4 7.5-7.5s-3.4-7.5-7.5-7.5h-.1c-4.1 0-7.5 3.4-7.5 7.5s3.4 7.5 7.6 7.5zM400.3 156.1c-4.2 0-7.5 3.4-7.5 7.5s3.4 7.5 7.5 7.5 7.5-3.4 7.5-7.5-3.4-7.5-7.5-7.5zM183.9 171.1c4.1 0 7.5-3.4 7.5-7.5s-3.4-7.5-7.5-7.5h-.1c-4.1 0-7.5 3.4-7.5 7.5s3.5 7.5 7.6 7.5zM328.2 156.1c-4.2 0-7.5 3.4-7.5 7.5s3.4 7.5 7.5 7.5 7.5-3.4 7.5-7.5-3.3-7.5-7.5-7.5z"/></symbol><symbol id="icon-of-7" viewBox="0 0 472 472"><path d="M440 208c4.4 0 8-3.6 8-8V8c0-4.4-3.6-8-8-8-34.6 0-88 27.5-88 64v8H184c-22.1 0-40 17.9-40 40v38.1c-8 7.1-13.4 16.6-15.3 27.1-48.4 7.3-85.2 47.3-88.3 96.1-11.1 3.7-17.9 15-16 26.6 1.9 11.6 11.9 20.1 23.7 20.1h240c11.7 0 21.8-8.5 23.7-20.1 1.9-11.6-4.9-22.8-16-26.6-3.2-48.8-39.9-88.8-88.3-96.1-1.9-10.5-7.3-20-15.3-27.1V120h160v24c-.2 36.5 53.2 64 87.8 64zM368 64c0-23.2 36.9-43.8 64-47.4v174.8c-27.1-3.6-64-24.2-64-47.4V64zM190.6 176h-45.1c2.7-8.1 8.8-16 14.6-16h16c5.7 0 11.8 7.8 14.5 16zM288 303.9H48c-4.4 0-8-3.6-8-8s3.6-8 8-8h240c4.4 0 8 3.6 8 8s-3.6 8-8 8zm-8.3-32H56.4c4.2-45.3 42.2-79.9 87.6-80h48c45.5.1 83.5 34.8 87.7 80zM184.1 104c-4.4 0-8 3.6-8 8v32h-16v-32c0-13.3 10.7-24 24-24h168v16h-168zM64.1 343.9c0-4.4-3.6-8-8-8s-8 3.6-8 8v8c0 4.4 3.6 8 8 8s8-3.6 8-8v-8zM96.1 343.9c0-4.4-3.6-8-8-8s-8 3.6-8 8v48c0 4.4 3.6 8 8 8s8-3.6 8-8v-48zM128.1 343.9c0-4.4-3.6-8-8-8s-8 3.6-8 8v8c0 4.4 3.6 8 8 8s8-3.6 8-8v-8zM160.1 343.9c0-4.4-3.6-8-8-8s-8 3.6-8 8v48c0 4.4 3.6 8 8 8s8-3.6 8-8v-48zM192.1 343.9c0-4.4-3.6-8-8-8s-8 3.6-8 8v8c0 4.4 3.6 8 8 8s8-3.6 8-8v-8zM224 343.9c0-4.4-3.6-8-8-8s-8 3.6-8 8v48c0 4.4 3.6 8 8 8s8-3.6 8-8v-48zM256 343.9c0-4.4-3.6-8-8-8s-8 3.6-8 8v8c0 4.4 3.6 8 8 8s8-3.6 8-8v-8zM88.1 415.9c-4.4 0-8 3.6-8 8v24c0 4.4 3.6 8 8 8s8-3.6 8-8v-24c0-4.4-3.6-8-8-8zM152.1 415.9c-4.4 0-8 3.6-8 8v24c0 4.4 3.6 8 8 8s8-3.6 8-8v-24c0-4.4-3.6-8-8-8zM216 415.9c-4.4 0-8 3.6-8 8v24c0 4.4 3.6 8 8 8s8-3.6 8-8v-24c0-4.4-3.5-8-8-8zM280 415.9c-4.4 0-8 3.6-8 8v24c0 4.4 3.6 8 8 8s8-3.6 8-8v-24c0-4.4-3.5-8-8-8zM288 343.9c0-4.4-3.6-8-8-8s-8 3.6-8 8v48c0 4.4 3.6 8 8 8s8-3.6 8-8v-48zM64.1 383.9c0-4.4-3.6-8-8-8s-8 3.6-8 8v48c0 4.4 3.6 8 8 8s8-3.6 8-8v-48zM128.1 383.9c0-4.4-3.6-8-8-8s-8 3.6-8 8v48c0 4.4 3.6 8 8 8s8-3.6 8-8v-48zM192.1 383.9c0-4.4-3.6-8-8-8s-8 3.6-8 8v48c0 4.4 3.6 8 8 8s8-3.6 8-8v-48zM256 383.9c0-4.4-3.6-8-8-8s-8 3.6-8 8v48c0 4.4 3.6 8 8 8s8-3.6 8-8v-48zM59.1 456.5c-1.5-.6-3.1-.7-4.6-.4-.5.1-1 .2-1.4.4-.5.2-1 .5-1.4.8-.4.3-.8.6-1.2 1-.7.8-1.3 1.7-1.7 2.6-.4.9-.7 2-.6 3 0 3.3 1.9 6.2 4.9 7.5 3 1.3 6.5.6 8.8-1.7 2.3-2.3 3-5.8 1.7-8.8-.4-1-1-1.9-1.7-2.6-.9-.8-1.8-1.4-2.8-1.8zM114.4 458.2c-.7.8-1.3 1.7-1.7 2.6-1.3 3-.6 6.4 1.7 8.7.8.7 1.7 1.3 2.6 1.7 3 1.3 6.4.6 8.7-1.7 2.3-2.3 3-5.7 1.7-8.7-.4-1-1-1.9-1.7-2.6-3.2-2.9-8.1-2.9-11.3 0zM188.5 457.3c-.4-.3-.9-.6-1.4-.8-.5-.2-1-.3-1.5-.4-1.5-.3-3.1-.2-4.5.4-1 .5-1.8 1.1-2.6 1.8-.7.8-1.3 1.7-1.7 2.6-1.3 3-.6 6.4 1.7 8.7.8.7 1.7 1.3 2.6 1.7 3 1.3 6.4.6 8.7-1.7 2.3-2.3 3-5.7 1.7-8.7-.4-1-1-1.9-1.7-2.6-.5-.4-.9-.8-1.3-1zM242.4 458.2c-.7.8-1.3 1.7-1.7 2.6-.4.9-.7 2-.6 3 0 2.1.8 4.2 2.3 5.7.8.7 1.7 1.3 2.6 1.7 2.5 1.1 5.3.8 7.5-.7s3.6-4 3.5-6.7c0-1.1-.2-2.1-.6-3-.4-1-1-1.9-1.7-2.6-3.2-2.9-8.1-2.9-11.3 0z"/></symbol><symbol id="icon-of-8" viewBox="0 0 388.4 388.4"><path d="M307.6 153.2c-11.2 0-22 2.4-32 6.4L262 133.2v-42c0-2.4-1.6-4.8-4-5.6l-32-12c-3.2-1.2-6.4.4-7.6 3.6-1.2 3.2.4 6.4 3.6 7.6l28.4 10.4v34H133.2v-11.6h14.4c3.2 0 6-2.8 6-6s-2.8-6-6-6h-37.2c-3.2 0-6 2.8-6 6s2.8 6 6 6h10.8V134l-11.6 25.2c-8.8-3.6-18.8-5.6-28.8-5.6-44.4 0-80.8 36-80.8 80.8s36 80.8 80.8 80.8c42.4 0 77.2-33.2 80.4-74.8h26c2 0 3.6-.8 4.8-2.4l62.8-90.8 10 18.8c-22.8 13.6-38 39.2-38 68 0 44.4 36 80.8 80.8 80.8s80.8-36 80.8-80.8-36-80.8-80.8-80.8zM80.8 302.8C42.8 302.8 12 272 12 234s30.8-68.8 68.8-68.8c8.4 0 16.4 1.6 23.6 4.4l-29.2 62v.4c-.4.8-.4 1.2-.4 2v.4c0 .8 0 1.2.4 2v.4c0 .4 0 .4.4.8 0 .4.4.4.8.8v.4c.4.4 1.2.8 1.6 1.2h.4c.8.4 1.2.4 2 .4h68.4c-2.8 34.8-32 62.4-68 62.4zM90 228l25.2-53.2c18.8 10.8 32 30.4 34 53.2H90zm94 0h-23.2c-2-27.6-18-51.2-40.8-64.4l10.8-22.8H244L184 228zm123.2 74.8c-38 0-68.8-30.8-68.8-68.8 0-24.4 12.8-45.6 32-58l31.6 60.8c1.2 2 3.2 3.2 5.2 3.2.8 0 2-.4 2.8-.8 2.8-1.6 4-5.2 2.4-8l-31.6-60.8c8.4-3.2 17.2-5.2 26.4-5.2 38 0 68.8 30.8 68.8 68.8s-30.8 68.8-68.8 68.8z"/></symbol><symbol id="icon-of-9" viewBox="0 0 512 512"><path d="M480.4 494.7H466V43.1c0-4.8-3.9-8.6-8.6-8.6H296.3c-4.8 0-8.6 3.9-8.6 8.6v37.4h-17.3V43.1c0-4.8-3.9-8.6-8.6-8.6h-37.4V8.6c0-4.8-3.9-8.6-8.6-8.6s-8.6 3.9-8.6 8.6v25.9h-37.4c-4.8 0-8.6 3.9-8.6 8.6v37.4h-25.9c-4.8 0-8.6 3.9-8.6 8.6V161h-72c-4.8 0-8.6 3.9-8.6 8.6v325H31.6c-4.8 0-8.6 3.9-8.6 8.6s3.9 8.6 8.6 8.6h448.7c4.8 0 8.6-3.9 8.6-8.6s-3.8-8.5-8.5-8.5zM178.3 51.8h74.8v28.8h-74.8V51.8zm-28.7 442.9h-5.8v-14.4c0-4.8-3.9-8.6-8.6-8.6s-8.6 3.9-8.6 8.6v14.4h-5.8V466h28.8v28.7zm57.5-221.4v221.4h-40.3v-37.4c0-4.8-3.9-8.6-8.6-8.6h-46c-4.8 0-8.6 3.9-8.6 8.6v37.4H63.3V178.3h143.8v95zm8.6-112.2h-71.9V97.8h143.8v166.8h-63.3v-28.8h25.9c4.8 0 8.6-3.9 8.6-8.6s-3.9-8.6-8.6-8.6h-25.9v-28.8h25.9c4.8 0 8.6-3.9 8.6-8.6s-3.9-8.6-8.6-8.6h-25.9v-2.9c.1-4.8-3.8-8.6-8.6-8.6zm152.5 333.6H224.4V281.9h143.8v212.8zm80.5 0h-63.3V261.8c0-4.8-3.9-8.6-8.6-8.6s-8.6 3.9-8.6 8.6v2.9h-17.3v-2.9c0-4.8-3.9-8.6-8.6-8.6s-8.6 3.9-8.6 8.6v2.9h-28.8V51.8h143.8v442.9z"/><path d="M261.8 477.5c4.8 0 8.6-3.9 8.6-8.6V307.8c0-4.8-3.9-8.6-8.6-8.6s-8.6 3.9-8.6 8.6v161.1c-.1 4.7 3.8 8.6 8.6 8.6zM296.3 477.5c4.8 0 8.6-3.9 8.6-8.6V307.8c0-4.8-3.9-8.6-8.6-8.6s-8.6 3.9-8.6 8.6v161.1c-.1 4.7 3.8 8.6 8.6 8.6zM330.8 477.5c4.8 0 8.6-3.9 8.6-8.6V307.8c0-4.8-3.9-8.6-8.6-8.6s-8.6 3.9-8.6 8.6v161.1c0 4.7 3.8 8.6 8.6 8.6zM342.3 109.3c4.8 0 8.6-3.9 8.6-8.6V89.2c0-4.8-3.9-8.6-8.6-8.6s-8.6 3.9-8.6 8.6v11.5c0 4.7 3.8 8.6 8.6 8.6zM376.8 109.3c4.8 0 8.6-3.9 8.6-8.6V89.2c0-4.8-3.9-8.6-8.6-8.6s-8.6 3.9-8.6 8.6v11.5c0 4.7 3.8 8.6 8.6 8.6zM411.3 109.3c4.8 0 8.6-3.9 8.6-8.6V89.2c0-4.8-3.9-8.6-8.6-8.6s-8.6 3.9-8.6 8.6v11.5c0 4.7 3.9 8.6 8.6 8.6zM342.3 166.8c4.8 0 8.6-3.9 8.6-8.6v-11.5c0-4.8-3.9-8.6-8.6-8.6s-8.6 3.9-8.6 8.6v11.5c0 4.8 3.8 8.6 8.6 8.6zM376.8 166.8c4.8 0 8.6-3.9 8.6-8.6v-11.5c0-4.8-3.9-8.6-8.6-8.6s-8.6 3.9-8.6 8.6v11.5c0 4.8 3.8 8.6 8.6 8.6zM411.3 166.8c4.8 0 8.6-3.9 8.6-8.6v-11.5c0-4.8-3.9-8.6-8.6-8.6s-8.6 3.9-8.6 8.6v11.5c0 4.8 3.9 8.6 8.6 8.6zM342.3 224.4c4.8 0 8.6-3.9 8.6-8.6v-11.5c0-4.8-3.9-8.6-8.6-8.6s-8.6 3.9-8.6 8.6v11.5c0 4.7 3.8 8.6 8.6 8.6zM376.8 224.4c4.8 0 8.6-3.9 8.6-8.6v-11.5c0-4.8-3.9-8.6-8.6-8.6s-8.6 3.9-8.6 8.6v11.5c0 4.7 3.8 8.6 8.6 8.6zM411.3 224.4c4.8 0 8.6-3.9 8.6-8.6v-11.5c0-4.8-3.9-8.6-8.6-8.6s-8.6 3.9-8.6 8.6v11.5c0 4.7 3.9 8.6 8.6 8.6zM100.7 247.4c4.8 0 8.6-3.9 8.6-8.6v-11.5c0-4.8-3.9-8.6-8.6-8.6s-8.6 3.9-8.6 8.6v11.5c-.1 4.7 3.8 8.6 8.6 8.6zM135.2 247.4c4.8 0 8.6-3.9 8.6-8.6v-11.5c0-4.8-3.9-8.6-8.6-8.6s-8.6 3.9-8.6 8.6v11.5c0 4.7 3.8 8.6 8.6 8.6zM169.7 247.4c4.8 0 8.6-3.9 8.6-8.6v-11.5c0-4.8-3.9-8.6-8.6-8.6s-8.6 3.9-8.6 8.6v11.5c0 4.7 3.8 8.6 8.6 8.6zM100.7 304.9c4.8 0 8.6-3.9 8.6-8.6v-11.5c0-4.8-3.9-8.6-8.6-8.6S92 280 92 284.8v11.5c0 4.7 3.9 8.6 8.7 8.6zM135.2 304.9c4.8 0 8.6-3.9 8.6-8.6v-11.5c0-4.8-3.9-8.6-8.6-8.6s-8.6 3.9-8.6 8.6v11.5c0 4.7 3.8 8.6 8.6 8.6zM169.7 304.9c4.8 0 8.6-3.9 8.6-8.6v-11.5c0-4.8-3.9-8.6-8.6-8.6s-8.6 3.9-8.6 8.6v11.5c0 4.7 3.8 8.6 8.6 8.6zM100.7 362.4c4.8 0 8.6-3.9 8.6-8.6v-11.5c0-4.8-3.9-8.6-8.6-8.6s-8.6 3.9-8.6 8.6v11.5c-.1 4.8 3.8 8.6 8.6 8.6zM135.2 362.4c4.8 0 8.6-3.9 8.6-8.6v-11.5c0-4.8-3.9-8.6-8.6-8.6s-8.6 3.9-8.6 8.6v11.5c0 4.8 3.8 8.6 8.6 8.6zM169.7 362.4c4.8 0 8.6-3.9 8.6-8.6v-11.5c0-4.8-3.9-8.6-8.6-8.6s-8.6 3.9-8.6 8.6v11.5c0 4.8 3.8 8.6 8.6 8.6zM100.7 420c4.8 0 8.6-3.9 8.6-8.6v-11.5c0-4.8-3.9-8.6-8.6-8.6s-8.6 3.9-8.6 8.6v11.5c-.1 4.7 3.8 8.6 8.6 8.6zM135.2 420c4.8 0 8.6-3.9 8.6-8.6v-11.5c0-4.8-3.9-8.6-8.6-8.6s-8.6 3.9-8.6 8.6v11.5c0 4.7 3.8 8.6 8.6 8.6zM169.7 420c4.8 0 8.6-3.9 8.6-8.6v-11.5c0-4.8-3.9-8.6-8.6-8.6s-8.6 3.9-8.6 8.6v11.5c0 4.7 3.8 8.6 8.6 8.6zM411.3 281.9c4.8 0 8.6-3.9 8.6-8.6v-11.5c0-4.8-3.9-8.6-8.6-8.6s-8.6 3.9-8.6 8.6v11.5c0 4.7 3.9 8.6 8.6 8.6zM411.3 339.4c4.8 0 8.6-3.9 8.6-8.6v-11.5c0-4.8-3.9-8.6-8.6-8.6s-8.6 3.9-8.6 8.6v11.5c0 4.8 3.9 8.6 8.6 8.6zM411.3 396.9c4.8 0 8.6-3.9 8.6-8.6v-11.5c0-4.8-3.9-8.6-8.6-8.6s-8.6 3.9-8.6 8.6v11.5c0 4.8 3.9 8.6 8.6 8.6zM411.3 454.5c4.8 0 8.6-3.9 8.6-8.6v-11.5c0-4.8-3.9-8.6-8.6-8.6s-8.6 3.9-8.6 8.6v11.5c0 4.7 3.9 8.6 8.6 8.6zM258.9 135.2c0-4.8-3.9-8.6-8.6-8.6h-69c-4.8 0-8.6 3.9-8.6 8.6s3.9 8.6 8.6 8.6h69c4.7 0 8.6-3.8 8.6-8.6z"/></symbol><symbol id="logo" viewBox="0 0 379.7 68.6"><style>.st1{clip-path:url(#SVGID_2_);fill:#fff}</style><path d="M0 8v1.8h11.7V43h1.8V9.8h1.8V43H17V9.8h1.8V43h1.8V9.8h11.7V8H0zm0-1.8h32.3V4.4H0v1.8zm0-3.6h32.3V.8H0v1.8z" fill="#fff"/><clipPath id="SVGID_2_"><use xlink:href="#SVGID_1_" overflow="visible"/></clipPath><path class="st1" d="M45.1 9.8h-1.8V43h-1.8V9.8h-1.8V43h-1.8V8h18.4c3.2 0 5.9 2.6 5.9 5.9s-2.6 5.8-5.9 5.8h-9.4v1.8h9.4c4.2 0 7.6-3.3 7.6-7.6 0-4.2-3.4-7.7-7.6-7.7H37.9V4.4h18.4c5.2 0 9.4 4.2 9.4 9.4s-4.2 9.4-9.4 9.4h-9.4V25h9.4c6.2 0 11.2-5 11.2-11.2 0-6.2-5-11.2-11.2-11.2H37.9V.8h18.4c7.2 0 13 5.9 13 13 0 5.6-3.6 10.4-8.6 12.2l9.2 17h-2.1l-8.9-16.4c-.6.1-1.2.2-1.9.2L65.9 43h-2.2l-8.8-16.1h-2L61.7 43h-2l-8.8-16.1h-4V43h-1.8V9.8zm1.8 0v8.1h9.4c2.3 0 4.1-1.7 4.1-4s-1.8-4.1-4.1-4.1h-9.4zM76.6.8h1.8V43h-1.8V.8zm3.6 0H82V43h-1.8V.8zm3.6 0h1.8V43h-1.8V.8zM94.3.8h1.8V43h-1.8V.8zm9 16V43h-1.8V11.8l-1.8-4.9v36h-1.8V.8h1.6l14.8 40.8 1-2.6-14-38.2h2l12.9 35.4.9-2.6L105.2.8h1.9L118 31.1 129.1.9h1.9L115.6 43h-2.7l-9.6-26.2zm29.5-.1L123.3 43h-1.9l11.5-31.5V6.2L119.5 43h-1.9L132.9.9h1.8V43h-1.8V16.7zM136.4.8h1.8V43h-1.8V.8zm3.6 0h1.8V43H140V.8zM167.7 37.1c2.7 2.8 7 4.9 11.8 4.9 7.1 0 13.3-4.5 13.3-11.3 0-4.5-2.8-9-7.3-10.4l-7.5-2c-2.4-.6-3.8-3-3.8-5.3 0-3.6 3.1-5.9 6.8-5.9 2.4 0 4.8 1 6.1 2.5l-1.6 1c-.7-.9-2.6-1.6-4.5-1.6-2.9 0-5 1.7-5 4.2 0 1.6 1 3.2 2.6 3.5l7.5 2.2c5.4 1.3 8.4 6.7 8.4 12 0 7.8-7 13-14.9 13-5.6 0-10.6-2.3-13.4-5.5l1.5-1.3zm11.7-2.3c3.5 0 6.1-1.6 6.1-4.1 0-1.6-1-3.2-2.6-3.5l-7.5-2.2c-5.4-1.3-8.4-6.6-8.4-11.9C167 5.2 173.7 0 181 0c4.8 0 9 2 11.5 4.8L191.1 6c-2.5-2.6-5.9-4.2-10.1-4.2-6.5 0-12.2 4.6-12.2 11.4 0 4.5 2.7 9 7.2 10.3l7.5 2c2.4.7 3.7 3 3.7 5.4 0 3.5-3.5 5.8-7.7 5.8-3.2 0-6.2-1.3-7.8-2.8l1.6-1.1c1.2 1 3.6 2 6.1 2m0 3.6c5.2 0 9.7-2.9 9.7-7.5 0-3-1.9-6.3-4.9-7.2l-7.5-2c-3.9-1-6.1-5-6.1-8.8 0-5.6 4.8-9.4 10.3-9.4 3.6 0 6.9 1.6 8.7 3.6l-1.3 1.1c-1.6-1.6-4.2-2.9-7.2-2.9-4.6 0-8.7 3-8.7 7.6 0 3 1.8 6.3 4.9 7.1l7.5 2c3.9 1.1 6 5 6 9 0 5.6-5.3 9.2-11.4 9.2-4.2 0-8.2-1.9-10.3-4.1l1.3-1.3c1.9 2.2 5.4 3.6 9 3.6M199.1.8h32.3v1.8h-32.3V.8zm0 3.6h32.3v1.8h-32.3V4.4zm18.8 5.4h-1.8V43h-1.8V9.8h-1.8V43h-1.8V9.8H199V8h32.3v1.8h-11.7V43h-1.8V9.8zM244.2 9.8h-1.8V43h-1.8V9.8h-1.8V43H237V8h18.4c3.2 0 5.9 2.6 5.9 5.9s-2.6 5.8-5.9 5.8H246v1.8h9.4c4.2 0 7.6-3.3 7.6-7.6 0-4.2-3.4-7.7-7.6-7.7H237V4.4h18.4c5.2 0 9.4 4.2 9.4 9.4s-4.2 9.4-9.4 9.4H246V25h9.4c6.2 0 11.2-5 11.2-11.2 0-6.2-5-11.2-11.2-11.2H237V.8h18.4c7.2 0 13 5.9 13 13 0 5.6-3.6 10.4-8.6 12.2l9.2 17h-2.1L258 26.6c-.6.1-1.2.2-1.9.2L265 43h-2.2L254 26.8h-2l8.7 16.1h-2L250 26.8h-4V43h-1.8V9.8zm1.8 0v8.1h9.4c2.3 0 4.1-1.7 4.1-4s-1.8-4.1-4.1-4.1H246zM275.7.8h28.7v1.8h-28.7V.8zm0 3.6h28.7v1.8h-28.7V4.4zm7.2 5.4h-1.8V43h-1.8V9.8h-1.8V43h-1.8V8h28.7v1.8h-19.7V17h18.8v1.8h-18.8v1.8h18.8v1.8h-18.8v1.8h18.8V26h-18.8v8h20.6v1.8h-20.6v1.8h20.6v1.8h-20.6v1.8h20.6V43h-22.4V9.8zM313.4.8h28.7v1.8h-28.7V.8zm0 3.6h28.7v1.8h-28.7V4.4zm7.1 5.4h-1.8V43H317V9.8h-1.8V43h-1.8V8h28.7v1.8h-19.7V17h18.8v1.8h-18.8v1.8h18.8v1.8h-18.8v1.8h18.8V26h-18.8v8H343v1.8h-20.6v1.8H343v1.8h-20.6v1.8H343V43h-22.4V9.8zM347.4.8h32.3v1.8h-32.3V.8zm0 3.6h32.3v1.8h-32.3V4.4zm18.9 5.4h-1.8V43h-1.8V9.8h-1.8V43h-1.8V9.8h-11.7V8h32.3v1.8H368V43h-1.8V9.8zM324.7 57.5c0 1.6-1 2.8-2.5 3.3 1.9.5 3 2.1 3 3.8 0 3.1-2.9 4-5.5 4h-6.3V53.3h6.3c2.6 0 5 1.3 5 4.2m-10.1 2.7h5.2c1.8 0 3.8-.6 3.8-2.8 0-2.2-2-3.2-3.9-3.2h-5.1v6zm0 7.3h5.1c1.9 0 4.4-.5 4.4-2.9s-2.2-3.2-4.2-3.2h-5.2v6.1zM340.4 68.6l-1.7-3.8h-9.1l-1.7 3.8h-1.3l6.9-15.3h1.3l6.9 15.3h-1.3zm-2.2-4.9l-4.1-9.3-4.1 9.3h8.2zM346.6 54.4h-5.5v-1.1h12.2v1.1h-5.5v14.2h-1.2zM366.7 68.6v-7H357v7h-1.2V53.3h1.2v7.3h9.7v-7.3h1.2v15.3z"/></symbol></svg>